<?xml version="1.0" encoding="utf-8"?>
<!-- Generator: Adobe Illustrator 19.0.0, SVG Export Plug-In . SVG Version: 6.00 Build 0)  -->
<svg version="1.1" id="Layer_1" xmlns="http://www.w3.org/2000/svg" xmlns:xlink="http://www.w3.org/1999/xlink" x="0px" y="0px"
	 viewBox="-55 145.6 848.6 271.4" style="enable-background:new -55 145.6 848.6 271.4;" xml:space="preserve">
<style type="text/css">
	.st0{fill:#11588F;}
	.st1{enable-background:new    ;}
	.st2{fill:#616161;}
	.st3{fill:#404040;}
	.st4{fill:#FFFFFF;}
</style>
<path id="XMLID_27_" class="st0" d="M196.9,243.8c19.3,19.3,19.3,50.6,0,69.9l-83.7,83.7c-19.3,19.3-50.6,19.3-69.9,0l-83.7-83.7
	c-19.3-19.3-19.3-50.6,0-69.9l83.7-83.7c19.3-19.3,50.6-19.3,69.9,0L196.9,243.8z"/>
<g class="st1">
	<path class="st2" d="M257.4,370.7c0,0.3,0,0.6,0,0.8c0,0.2-0.1,0.4-0.2,0.6c-0.1,0.1-0.2,0.2-0.3,0.3c-0.1,0.1-0.2,0.1-0.4,0.1
		h-9.1v28.1c0,0.1,0,0.3-0.1,0.4c-0.1,0.1-0.2,0.2-0.4,0.2c-0.2,0.1-0.4,0.1-0.7,0.2c-0.3,0-0.6,0.1-1,0.1c-0.4,0-0.7,0-1-0.1
		c-0.3,0-0.5-0.1-0.7-0.2c-0.2-0.1-0.3-0.1-0.4-0.2c-0.1-0.1-0.1-0.2-0.1-0.4v-28.1H234c-0.1,0-0.3,0-0.4-0.1
		c-0.1-0.1-0.2-0.2-0.3-0.3c-0.1-0.1-0.1-0.3-0.2-0.6c0-0.2-0.1-0.5-0.1-0.8c0-0.3,0-0.6,0.1-0.8c0-0.2,0.1-0.4,0.2-0.6
		c0.1-0.2,0.2-0.3,0.3-0.3c0.1-0.1,0.2-0.1,0.4-0.1h22.5c0.1,0,0.3,0,0.4,0.1s0.2,0.2,0.3,0.3c0.1,0.2,0.1,0.3,0.2,0.6
		C257.4,370.1,257.4,370.4,257.4,370.7z"/>
	<path class="st2" d="M293.4,400.6c0,0.1,0,0.3-0.1,0.4c-0.1,0.1-0.2,0.2-0.4,0.2s-0.4,0.1-0.7,0.2c-0.3,0-0.6,0.1-1,0.1
		c-0.4,0-0.8,0-1.1-0.1c-0.3,0-0.5-0.1-0.7-0.2c-0.2-0.1-0.3-0.1-0.4-0.2c-0.1-0.1-0.1-0.2-0.1-0.4v-14.4h-14.7v14.4
		c0,0.1,0,0.3-0.1,0.4c-0.1,0.1-0.2,0.2-0.4,0.2c-0.2,0.1-0.4,0.1-0.7,0.2c-0.3,0-0.6,0.1-1,0.1c-0.4,0-0.7,0-1-0.1
		c-0.3,0-0.5-0.1-0.7-0.2c-0.2-0.1-0.3-0.1-0.4-0.2c-0.1-0.1-0.1-0.2-0.1-0.4v-31.1c0-0.1,0-0.3,0.1-0.4c0.1-0.1,0.2-0.2,0.4-0.2
		c0.2-0.1,0.4-0.1,0.7-0.2c0.3,0,0.6-0.1,1-0.1c0.4,0,0.8,0,1,0.1c0.3,0,0.5,0.1,0.7,0.2c0.2,0.1,0.3,0.1,0.4,0.2
		c0.1,0.1,0.1,0.2,0.1,0.4v13h14.7v-13c0-0.1,0-0.3,0.1-0.4c0.1-0.1,0.2-0.2,0.4-0.2c0.2-0.1,0.4-0.1,0.7-0.2c0.3,0,0.6-0.1,1.1-0.1
		c0.4,0,0.7,0,1,0.1c0.3,0,0.5,0.1,0.7,0.2s0.3,0.1,0.4,0.2c0.1,0.1,0.1,0.2,0.1,0.4V400.6z"/>
	<path class="st2" d="M328.1,399.5c0,0.3,0,0.6-0.1,0.8c0,0.2-0.1,0.4-0.2,0.6s-0.2,0.3-0.3,0.3c-0.1,0.1-0.2,0.1-0.4,0.1h-15.5
		c-0.4,0-0.7-0.1-1.1-0.4c-0.3-0.3-0.5-0.7-0.5-1.4v-28.9c0-0.7,0.2-1.1,0.5-1.4c0.3-0.3,0.7-0.4,1.1-0.4H327c0.1,0,0.3,0,0.4,0.1
		c0.1,0.1,0.2,0.2,0.3,0.3c0.1,0.2,0.1,0.3,0.2,0.6c0,0.2,0.1,0.5,0.1,0.8c0,0.3,0,0.6-0.1,0.8c0,0.2-0.1,0.4-0.2,0.6
		c-0.1,0.1-0.2,0.2-0.3,0.3c-0.1,0.1-0.2,0.1-0.4,0.1h-12.7v10.2h10.9c0.1,0,0.3,0,0.4,0.1c0.1,0.1,0.2,0.2,0.3,0.3s0.1,0.3,0.2,0.6
		c0,0.2,0.1,0.5,0.1,0.8c0,0.3,0,0.6-0.1,0.8c0,0.2-0.1,0.4-0.2,0.5s-0.2,0.2-0.3,0.3c-0.1,0.1-0.2,0.1-0.4,0.1h-10.9v11.6h12.8
		c0.1,0,0.3,0,0.4,0.1s0.2,0.2,0.3,0.3s0.1,0.3,0.2,0.6C328.1,398.9,328.1,399.2,328.1,399.5z"/>
	<path class="st2" d="M380.1,392.2c0,1.5-0.3,2.9-0.8,4.1c-0.6,1.2-1.3,2.2-2.3,3s-2.2,1.4-3.5,1.9s-2.8,0.6-4.3,0.6
		c-1.1,0-2.1-0.1-3-0.3s-1.8-0.4-2.5-0.7c-0.7-0.3-1.3-0.5-1.8-0.8c-0.5-0.3-0.8-0.5-1-0.7c-0.2-0.2-0.3-0.5-0.4-0.8
		s-0.1-0.7-0.1-1.2c0-0.4,0-0.7,0.1-0.9c0-0.2,0.1-0.4,0.1-0.6c0.1-0.1,0.2-0.3,0.3-0.3s0.2-0.1,0.4-0.1c0.2,0,0.6,0.1,1,0.4
		c0.4,0.3,1,0.6,1.6,0.9c0.7,0.3,1.5,0.6,2.4,0.9s2,0.4,3.3,0.4c0.9,0,1.8-0.1,2.6-0.4s1.4-0.6,2-1.1c0.6-0.5,1-1,1.3-1.7
		c0.3-0.7,0.5-1.4,0.5-2.3c0-0.9-0.2-1.7-0.6-2.4c-0.4-0.7-1-1.2-1.7-1.7c-0.7-0.5-1.5-0.9-2.3-1.4s-1.8-0.8-2.7-1.3
		s-1.8-0.9-2.7-1.4s-1.6-1.1-2.3-1.8c-0.7-0.7-1.2-1.5-1.7-2.5c-0.4-0.9-0.6-2.1-0.6-3.4c0-1.4,0.2-2.6,0.7-3.6
		c0.5-1.1,1.2-1.9,2.1-2.7c0.9-0.7,1.9-1.3,3.1-1.6c1.2-0.4,2.5-0.6,3.9-0.6c0.7,0,1.4,0.1,2.2,0.2c0.7,0.1,1.4,0.3,2.1,0.5
		s1.2,0.4,1.7,0.7s0.8,0.5,1,0.6c0.2,0.2,0.3,0.3,0.3,0.4s0.1,0.2,0.1,0.4c0,0.1,0.1,0.3,0.1,0.5s0,0.5,0,0.8c0,0.3,0,0.6,0,0.8
		c0,0.2-0.1,0.4-0.1,0.6c0,0.2-0.1,0.3-0.2,0.4s-0.2,0.1-0.3,0.1c-0.2,0-0.5-0.1-0.9-0.3c-0.4-0.2-0.9-0.5-1.4-0.8s-1.2-0.6-2-0.8
		c-0.8-0.2-1.6-0.4-2.6-0.4c-0.9,0-1.7,0.1-2.4,0.4c-0.7,0.2-1.2,0.6-1.7,1c-0.4,0.4-0.8,0.9-1,1.4c-0.2,0.6-0.3,1.1-0.3,1.8
		c0,0.9,0.2,1.7,0.6,2.3c0.4,0.7,1,1.2,1.7,1.7c0.7,0.5,1.5,1,2.4,1.4c0.9,0.4,1.8,0.8,2.7,1.3c0.9,0.4,1.8,0.9,2.7,1.4
		s1.7,1.1,2.4,1.8c0.7,0.7,1.3,1.5,1.7,2.5C379.9,389.8,380.1,390.9,380.1,392.2z"/>
	<path class="st2" d="M421.4,384.7c0,2.6-0.3,5-0.9,7.1c-0.6,2.1-1.5,3.9-2.8,5.4c-1.2,1.5-2.8,2.6-4.6,3.4c-1.9,0.8-4,1.2-6.5,1.2
		c-2.4,0-4.5-0.4-6.3-1.1c-1.8-0.7-3.2-1.8-4.4-3.2c-1.2-1.4-2-3.1-2.6-5.2s-0.9-4.4-0.9-7.1c0-2.6,0.3-4.9,0.9-7
		c0.6-2.1,1.5-3.9,2.8-5.3c1.2-1.5,2.8-2.6,4.6-3.4c1.9-0.8,4-1.2,6.5-1.2c2.4,0,4.5,0.4,6.2,1.1c1.8,0.7,3.2,1.8,4.4,3.1
		s2.1,3.1,2.6,5.1C421.1,379.8,421.4,382.1,421.4,384.7z M416.8,385c0-1.8-0.2-3.5-0.5-5.1s-0.9-2.9-1.6-4.1s-1.8-2.1-3-2.7
		c-1.3-0.7-2.8-1-4.7-1c-1.9,0-3.4,0.4-4.7,1.1s-2.3,1.6-3.1,2.8c-0.8,1.2-1.4,2.5-1.7,4.1s-0.5,3.2-0.5,4.9c0,1.9,0.2,3.7,0.5,5.3
		c0.3,1.6,0.8,3,1.6,4.1c0.8,1.2,1.8,2.1,3,2.7c1.3,0.6,2.8,1,4.7,1c1.9,0,3.5-0.4,4.8-1.1c1.3-0.7,2.3-1.6,3.1-2.8s1.3-2.6,1.7-4.1
		C416.6,388.4,416.8,386.8,416.8,385z"/>
	<path class="st2" d="M457.8,396.7c0,0.3,0,0.5,0,0.7c0,0.2,0,0.4-0.1,0.5c0,0.2-0.1,0.3-0.2,0.4c-0.1,0.1-0.2,0.3-0.4,0.4
		s-0.5,0.4-1.1,0.8s-1.2,0.7-2,1s-1.7,0.6-2.7,0.8s-2.1,0.3-3.4,0.3c-2.1,0-4-0.4-5.7-1.1c-1.7-0.7-3.1-1.7-4.3-3.1
		c-1.2-1.4-2.1-3.1-2.8-5.1c-0.6-2-1-4.3-1-6.9c0-2.7,0.3-5.1,1-7.2c0.7-2.1,1.7-3.9,2.9-5.3c1.3-1.5,2.8-2.6,4.5-3.3
		s3.7-1.2,5.8-1.2c0.9,0,1.8,0.1,2.7,0.3c0.9,0.2,1.7,0.4,2.5,0.7c0.8,0.3,1.4,0.6,2,0.9s1,0.6,1.2,0.9c0.2,0.2,0.4,0.4,0.4,0.5
		c0.1,0.1,0.1,0.3,0.2,0.4c0,0.2,0.1,0.3,0.1,0.6c0,0.2,0,0.5,0,0.8c0,0.3,0,0.6-0.1,0.9c0,0.2-0.1,0.4-0.2,0.6
		c-0.1,0.2-0.1,0.3-0.2,0.3c-0.1,0.1-0.2,0.1-0.3,0.1c-0.2,0-0.6-0.2-1-0.5c-0.4-0.3-1-0.7-1.6-1.1c-0.7-0.4-1.5-0.8-2.4-1.1
		s-2.1-0.5-3.4-0.5c-1.4,0-2.8,0.3-3.9,0.9c-1.2,0.6-2.2,1.4-3,2.5s-1.5,2.5-2,4.1c-0.5,1.6-0.7,3.5-0.7,5.5c0,2.1,0.2,3.9,0.7,5.4
		c0.4,1.6,1.1,2.9,1.9,4c0.8,1.1,1.9,1.9,3.1,2.4c1.2,0.5,2.6,0.8,4.1,0.8c1.3,0,2.4-0.2,3.4-0.5c1-0.3,1.8-0.7,2.5-1.1
		c0.7-0.4,1.2-0.7,1.7-1.1c0.4-0.3,0.8-0.5,1-0.5c0.1,0,0.2,0,0.3,0.1s0.2,0.1,0.2,0.3c0.1,0.1,0.1,0.3,0.1,0.6
		C457.8,396,457.8,396.3,457.8,396.7z"/>
	<path class="st2" d="M475.8,400.6c0,0.1,0,0.3-0.1,0.4c-0.1,0.1-0.2,0.2-0.3,0.2c-0.2,0.1-0.4,0.1-0.7,0.2c-0.3,0-0.6,0.1-1,0.1
		c-0.4,0-0.7,0-1-0.1c-0.3,0-0.5-0.1-0.7-0.2s-0.3-0.1-0.4-0.2c-0.1-0.1-0.1-0.2-0.1-0.4v-31.1c0-0.1,0-0.3,0.1-0.4
		c0.1-0.1,0.2-0.2,0.4-0.2c0.2-0.1,0.4-0.1,0.7-0.2c0.3,0,0.6-0.1,1-0.1c0.4,0,0.8,0,1,0.1c0.3,0,0.5,0.1,0.7,0.2
		c0.2,0.1,0.3,0.1,0.3,0.2c0.1,0.1,0.1,0.2,0.1,0.4V400.6z"/>
	<path class="st2" d="M516.7,399.8c0.1,0.4,0.2,0.7,0.2,0.9c0,0.2-0.1,0.4-0.2,0.5s-0.4,0.2-0.7,0.2c-0.3,0-0.7,0-1.2,0
		c-0.5,0-0.9,0-1.2,0c-0.3,0-0.5-0.1-0.7-0.1c-0.2-0.1-0.3-0.1-0.4-0.2c-0.1-0.1-0.1-0.2-0.2-0.4l-2.8-7.9h-13.5l-2.7,7.8
		c0,0.1-0.1,0.3-0.2,0.4c-0.1,0.1-0.2,0.2-0.4,0.3c-0.2,0.1-0.4,0.1-0.7,0.2c-0.3,0-0.7,0-1.1,0c-0.5,0-0.9,0-1.2-0.1
		c-0.3,0-0.5-0.1-0.7-0.2c-0.1-0.1-0.2-0.3-0.2-0.5c0-0.2,0.1-0.5,0.2-0.9l10.9-30.1c0.1-0.2,0.2-0.3,0.3-0.5
		c0.1-0.1,0.3-0.2,0.5-0.3c0.2-0.1,0.5-0.1,0.8-0.1c0.3,0,0.7,0,1.2,0c0.5,0,1,0,1.3,0c0.4,0,0.6,0.1,0.9,0.1
		c0.2,0.1,0.4,0.2,0.5,0.3c0.1,0.1,0.2,0.3,0.3,0.5L516.7,399.8z M502.7,373.2L502.7,373.2l-5.6,16.1h11.3L502.7,373.2z"/>
	<path class="st2" d="M546.9,399.4c0,0.3,0,0.6,0,0.8c0,0.2-0.1,0.4-0.2,0.6s-0.2,0.3-0.3,0.4s-0.2,0.1-0.4,0.1h-14.3
		c-0.4,0-0.7-0.1-1.1-0.4c-0.3-0.3-0.5-0.7-0.5-1.4v-30c0-0.1,0-0.3,0.1-0.4c0.1-0.1,0.2-0.2,0.4-0.2c0.2-0.1,0.4-0.1,0.7-0.2
		c0.3,0,0.6-0.1,1-0.1c0.4,0,0.8,0,1,0.1c0.3,0,0.5,0.1,0.7,0.2s0.3,0.1,0.4,0.2c0.1,0.1,0.1,0.2,0.1,0.4v28H546
		c0.1,0,0.3,0,0.4,0.1s0.2,0.2,0.3,0.3s0.1,0.3,0.2,0.6C546.9,398.8,546.9,399.1,546.9,399.4z"/>
	<path class="st2" d="M596,399.4c0,0.3,0,0.6,0,0.8s-0.1,0.4-0.2,0.6c-0.1,0.2-0.2,0.3-0.3,0.4s-0.2,0.1-0.4,0.1h-14.3
		c-0.4,0-0.7-0.1-1.1-0.4s-0.5-0.7-0.5-1.4v-30c0-0.1,0-0.3,0.1-0.4c0.1-0.1,0.2-0.2,0.4-0.2s0.4-0.1,0.7-0.2c0.3,0,0.6-0.1,1-0.1
		c0.4,0,0.8,0,1,0.1c0.3,0,0.5,0.1,0.7,0.2c0.2,0.1,0.3,0.1,0.3,0.2c0.1,0.1,0.1,0.2,0.1,0.4v28h11.6c0.2,0,0.3,0,0.4,0.1
		s0.2,0.2,0.3,0.3c0.1,0.1,0.1,0.3,0.2,0.6S596,399.1,596,399.4z"/>
	<path class="st2" d="M633.1,399.8c0.1,0.4,0.2,0.7,0.2,0.9c0,0.2-0.1,0.4-0.2,0.5c-0.1,0.1-0.4,0.2-0.7,0.2c-0.3,0-0.7,0-1.2,0
		s-0.9,0-1.2,0c-0.3,0-0.5-0.1-0.7-0.1c-0.2-0.1-0.3-0.1-0.4-0.2c-0.1-0.1-0.1-0.2-0.2-0.4l-2.8-7.9h-13.5l-2.7,7.8
		c0,0.1-0.1,0.3-0.2,0.4c-0.1,0.1-0.2,0.2-0.4,0.3c-0.2,0.1-0.4,0.1-0.7,0.2c-0.3,0-0.7,0-1.1,0c-0.5,0-0.9,0-1.2-0.1
		c-0.3,0-0.5-0.1-0.7-0.2c-0.1-0.1-0.2-0.3-0.2-0.5c0-0.2,0.1-0.5,0.2-0.9l10.9-30.1c0.1-0.2,0.2-0.3,0.3-0.5
		c0.1-0.1,0.3-0.2,0.5-0.3c0.2-0.1,0.5-0.1,0.8-0.1c0.3,0,0.7,0,1.2,0c0.5,0,1,0,1.3,0c0.3,0,0.6,0.1,0.9,0.1s0.4,0.2,0.5,0.3
		c0.1,0.1,0.2,0.3,0.3,0.5L633.1,399.8z M619.1,373.2L619.1,373.2l-5.6,16.1h11.3L619.1,373.2z"/>
	<path class="st2" d="M671.4,384.6c0,2.8-0.4,5.3-1.1,7.3s-1.8,3.8-3.1,5.2s-3.1,2.4-5.1,3.1c-2,0.7-4.4,1-7.2,1h-6.9
		c-0.4,0-0.7-0.1-1.1-0.4s-0.5-0.7-0.5-1.4v-28.9c0-0.7,0.2-1.1,0.5-1.4c0.3-0.3,0.7-0.4,1.1-0.4h7.3c2.8,0,5.2,0.4,7.1,1.1
		c1.9,0.7,3.6,1.8,4.9,3.1c1.3,1.4,2.3,3,3,4.9S671.4,382.2,671.4,384.6z M666.8,384.8c0-1.8-0.2-3.4-0.7-4.9
		c-0.4-1.5-1.1-2.8-2-3.9c-0.9-1.1-2.1-2-3.5-2.6c-1.4-0.6-3.2-0.9-5.5-0.9h-4.4v25.2h4.4c2.1,0,3.8-0.3,5.2-0.8
		c1.4-0.5,2.6-1.3,3.6-2.4c1-1.1,1.7-2.4,2.1-4S666.8,387,666.8,384.8z"/>
	<path class="st2" d="M710.9,384.6c0,2.8-0.4,5.3-1.1,7.3c-0.7,2.1-1.8,3.8-3.1,5.2s-3.1,2.4-5.1,3.1s-4.4,1-7.2,1h-6.9
		c-0.4,0-0.7-0.1-1.1-0.4c-0.3-0.3-0.5-0.7-0.5-1.4v-28.9c0-0.7,0.2-1.1,0.5-1.4c0.3-0.3,0.7-0.4,1.1-0.4h7.3c2.8,0,5.2,0.4,7.1,1.1
		c1.9,0.7,3.6,1.8,4.9,3.1c1.3,1.4,2.3,3,3,4.9C710.6,380,710.9,382.2,710.9,384.6z M706.4,384.8c0-1.8-0.2-3.4-0.7-4.9
		c-0.4-1.5-1.1-2.8-2-3.9c-0.9-1.1-2.1-2-3.5-2.6c-1.4-0.6-3.2-0.9-5.5-0.9h-4.4v25.2h4.4c2.1,0,3.8-0.3,5.2-0.8
		c1.4-0.5,2.6-1.3,3.6-2.4c1-1.1,1.7-2.4,2.1-4S706.4,387,706.4,384.8z"/>
	<path class="st2" d="M743.6,399.5c0,0.3,0,0.6,0,0.8c0,0.2-0.1,0.4-0.2,0.6c-0.1,0.2-0.2,0.3-0.3,0.3c-0.1,0.1-0.2,0.1-0.4,0.1
		h-15.5c-0.4,0-0.7-0.1-1.1-0.4c-0.3-0.3-0.5-0.7-0.5-1.4v-28.9c0-0.7,0.2-1.1,0.5-1.4c0.3-0.3,0.7-0.4,1.1-0.4h15.4
		c0.1,0,0.3,0,0.4,0.1s0.2,0.2,0.3,0.3c0.1,0.2,0.1,0.3,0.2,0.6c0,0.2,0.1,0.5,0.1,0.8c0,0.3,0,0.6-0.1,0.8s-0.1,0.4-0.2,0.6
		c-0.1,0.1-0.2,0.2-0.3,0.3c-0.1,0.1-0.2,0.1-0.4,0.1h-12.7v10.2h10.9c0.1,0,0.3,0,0.4,0.1c0.1,0.1,0.2,0.2,0.3,0.3
		c0.1,0.1,0.1,0.3,0.2,0.6c0,0.2,0,0.5,0,0.8c0,0.3,0,0.6,0,0.8s-0.1,0.4-0.2,0.5c-0.1,0.1-0.2,0.2-0.3,0.3s-0.2,0.1-0.4,0.1h-10.9
		v11.6h12.8c0.1,0,0.3,0,0.4,0.1c0.1,0.1,0.2,0.2,0.3,0.3c0.1,0.1,0.1,0.3,0.2,0.6S743.6,399.2,743.6,399.5z"/>
	<path class="st2" d="M780.2,400.6c0,0.1,0,0.3-0.1,0.4c0,0.1-0.2,0.2-0.3,0.3s-0.4,0.1-0.7,0.2c-0.3,0-0.7,0-1.2,0
		c-0.4,0-0.8,0-1.1,0c-0.3,0-0.5-0.1-0.7-0.2c-0.2-0.1-0.3-0.2-0.4-0.3c-0.1-0.1-0.2-0.3-0.2-0.5l-3-7.6c-0.4-0.9-0.7-1.7-1.1-2.4
		c-0.4-0.7-0.8-1.4-1.3-1.9c-0.5-0.5-1.1-0.9-1.8-1.2s-1.5-0.4-2.5-0.4h-2.9v13.8c0,0.1,0,0.3-0.1,0.4c-0.1,0.1-0.2,0.2-0.3,0.2
		c-0.2,0.1-0.4,0.1-0.7,0.2c-0.3,0-0.6,0.1-1,0.1s-0.8,0-1-0.1c-0.3,0-0.5-0.1-0.7-0.2c-0.2-0.1-0.3-0.1-0.4-0.2
		c-0.1-0.1-0.1-0.2-0.1-0.4v-30c0-0.7,0.2-1.1,0.5-1.4c0.3-0.3,0.7-0.4,1.1-0.4h6.9c0.8,0,1.5,0,2,0.1c0.5,0,1,0.1,1.5,0.1
		c1.3,0.2,2.4,0.6,3.3,1c1,0.5,1.8,1.1,2.4,1.8c0.7,0.7,1.1,1.5,1.5,2.5c0.3,0.9,0.5,1.9,0.5,3.1c0,1.1-0.1,2.1-0.4,2.9
		c-0.3,0.9-0.7,1.6-1.3,2.3c-0.6,0.7-1.2,1.2-2,1.7c-0.8,0.5-1.6,0.9-2.6,1.2c0.5,0.2,1,0.5,1.5,0.9c0.4,0.4,0.8,0.8,1.2,1.3
		c0.4,0.5,0.7,1.1,1.1,1.7c0.3,0.7,0.7,1.4,1,2.2l2.9,7.1c0.2,0.6,0.4,1,0.5,1.3C780.2,400.3,780.2,400.5,780.2,400.6z M773.7,377.9
		c0-1.3-0.3-2.3-0.9-3.2s-1.5-1.5-2.9-1.9c-0.4-0.1-0.9-0.2-1.4-0.3c-0.5,0-1.2-0.1-2.1-0.1h-3.6v10.9h4.2c1.1,0,2.1-0.1,2.9-0.4
		s1.5-0.7,2.1-1.2c0.6-0.5,1-1.1,1.2-1.7C773.6,379.4,773.7,378.7,773.7,377.9z"/>
</g>
<path id="XMLID_24_" class="st3" d="M448,302.9c0,19.7-17.8,28.4-35.5,28.4c-12.8,0-24.7-5.3-34.3-14.6l8.7-12.2
	c7.1,7.5,16,12.2,25.5,12.2c3.4,0,20.1-0.8,20.1-13.8c0-10.7-4.7-11.8-21.1-16.4c-11.6-3.2-30.4-7.7-30.4-30.2
	c0-18.6,17.2-28.4,33.8-28.4c12,0,22.9,4.5,31.4,12.6l-9.1,11.6c-6.1-6.1-13.8-9.5-22.3-9.5c-6.5,0-18.4,3-18.4,13.8
	c0,10.9,7.7,12.4,19.1,15.6C431.4,276.3,448,280.4,448,302.9z"/>
<path id="XMLID_21_" class="st3" d="M466.9,230.1l15.4,13.8c7.3-10.3,21.5-16,32.6-16c28.2,0,49.5,21.3,49.5,51.9
	c0,27.6-18,51.5-48.8,51.5c-12.4,0-24.9-5.5-33.2-16v43.6H467L466.9,230.1L466.9,230.1z M515.6,316.7c19.7,0,33-15.2,33-36.9
	s-13.4-37.3-33-37.3c-19.3,0-33.8,14.4-33.8,37.1C481.7,302.5,496.3,316.7,515.6,316.7z"/>
<path id="XMLID_18_" class="st3" d="M603.4,193c0,5.7-4.7,10.5-10.5,10.5c-5.7,0-10.3-4.9-10.3-10.5c0-5.7,4.7-10.5,10.3-10.5
	C598.8,182.5,603.4,187.3,603.4,193z M600.8,230.1V329H585v-98.9H600.8z"/>
<path id="XMLID_16_" class="st3" d="M688.2,232.7l-8.9,13.7c-4.5-3.9-9.5-3.9-15-3.9c-13.2,0-23.5,10.3-23.5,23.5v63h-15.4v-98.9
	l15.4,12c6.3-8.5,15.8-14.2,27.6-14.2C675.7,227.9,682.6,229.5,688.2,232.7z"/>
<path id="XMLID_15_" class="st3" d="M300.8,159.4l-67.5,169.9h16.6l50.9-127.4l31,77.6h-51.3c66.5,16.2,92.3,61,92.3,61L300.8,159.4
	z"/>
<path id="XMLID_14_" class="st3" d="M781.2,283.2c0.6-33.6-16.2-55.1-44.6-55.1c-27.6,0-47.8,21.8-47.8,51.8
	c0,30.4,20.7,51.4,49.7,51.4c16.6,0,29.6-5.3,40.1-15.2l-9.7-11.2c-7.7,7.3-17.4,11.9-30.4,11.9c-19.7,0-33.8-15.2-33.8-37.2
	c0,0-2.7-37,32-37c17.6,0,25.3,11.8,28.4,25.5h-58.2l13.7,14.9h60.6V283.2z"/>
<g id="XMLID_3_">
	<path id="XMLID_13_" class="st4" d="M178.9,263.4c0.8,0.7,2.8,3.2,1.7,5.8c-0.2,0.4-14.3,43.2-14.6,44c-1.2,3.1-6.3,1.7-6-1.7
		c0-0.5,7.1-43.6,7.3-45.4c0.2-2,2.6-3.9,4.3-4.2C174.2,261.4,177.6,262.5,178.9,263.4z"/>
	<polygon id="XMLID_12_" class="st4" points="151.5,257.1 118.7,255 92.5,229.1 128.5,235.1 	"/>
	<path id="XMLID_11_" class="st4" d="M150.5,264c0,0-1.3-1.9-3.6-3.1l-0.2-1.3c0.6-0.4,0.7-0.8,0.6-1.2c-0.1-0.4-0.3-0.8-1-0.9
		l-0.6-3.3c0,0-2.3-1-2,0.4l0.6,3.3c0,0.2-0.7,0.8-0.6,1.2c0.1,0.5,1,0.7,1,0.9l0.2,1.1c0,0-1.2,2-0.2,3.5c0.9,1.6,4,1.1,4.5,3.9
		C149.1,268.6,151.7,266.7,150.5,264z"/>
	<circle id="XMLID_10_" class="st4" cx="160.2" cy="324.2" r="5.7"/>
	<path id="XMLID_7_" class="st4" d="M138.4,284c-1.3-7-4.4-13.2-8.7-18.3l-15.7-1.2l-13.5-12.8c-2.8-0.1-5.7,0.1-8.5,0.7
		c-21.6,4.1-35.8,24.8-31.7,46.4c4.1,21.6,24.8,35.8,46.4,31.7S142.5,305.6,138.4,284z M104.5,318.6c-14.9,2.8-29.3-7-32.1-21.9
		c-2.8-14.9,7-29.3,21.9-32.1c2-0.4,4-0.5,5.9-0.5l0,0c0.8,1.1,7,9.2,20.2,9.7c3,3.5,5.1,7.8,6,12.7
		C129.3,301.4,119.4,315.8,104.5,318.6z"/>
	<g id="XMLID_4_">
		<path id="XMLID_5_" class="st4" d="M32.3,332.5v-42.9L0.4,231.5h14.8l24.3,45.2l25-45.2h14.8l-33.9,58v43H32.3L32.3,332.5z"/>
	</g>
</g>
</svg>
